# 
# Generated by Sweet Home 3D - Tue Jul 16 00:09:36 PDT 2013
# http://www.sweethome3d.com/
# 
mtllib marla.mtl
g 1_1
usemtl material_1
v 355.7436 120.0 255.05922
v 313.73956 0.0 255.05922
v 355.7436 0.0 255.05922
v 313.73956 120.0 255.05922
vt 0.6754968 1.0021966 0
vt 0.32626283 0.0 0
vt 0.6754968 0.0 0
vt 0.32626283 1.0021966 0
vn 0.0 0.0 1.0
f 1/1/1 2/2/1 3/3/1
f 2/2/1 1/1/1 4/4/1
g 2_2
usemtl material_0
v 313.73956 120.0 253.55922
v 355.7436 120.0 253.55922
v 355.7436 0.0 253.55922
v 313.73956 0.0 253.55922
vn 0.0 1.0 0.0
vn 0.0 0.0 -1.0
vn 0.0 -1.0 0.0
f 1//2 5//2 4//2
f 5//2 1//2 6//2
f 5//3 7//3 8//3
f 7//3 5//3 6//3
f 8//4 3//4 2//4
f 3//4 8//4 7//4
g 3_3
usemtl material_0
v 402.99814 0.0 253.55922
v 402.99814 120.0 255.05922
v 402.99814 0.0 255.05922
v 402.99814 120.0 253.55922
v 363.7438 0.0 255.05922
v 363.7438 0.0 253.55922
v 363.7438 120.0 253.55922
v 363.7438 120.0 255.05922
vn 1.0 0.0 0.0
f 9//5 10//5 11//5
f 10//5 9//5 12//5
f 9//4 13//4 14//4
f 13//4 9//4 11//4
f 15//3 9//3 14//3
f 9//3 15//3 12//3
f 10//2 15//2 16//2
f 15//2 10//2 12//2
f 14//5 16//5 13//5
f 16//5 14//5 15//5
g 4_4
usemtl material_1
vt 1.001869 1.0021966 0
vt 1.001869 0.0 0
f 10/5/1 13/3/1 11/6/1
f 13/3/1 10/5/1 16/1/1
g 5_5
usemtl material_1
v 304.73932 120.0 255.05922
v 265.49814 0.0 255.05922
v 304.73932 0.0 255.05922
v 265.49814 120.0 255.05922
vt 0.0 0.0 0
vt 0.0 1.0021966 0
f 17/4/1 18/7/1 19/2/1
f 18/7/1 17/4/1 20/8/1
g 6_6
usemtl material_0
v 304.73932 120.0 253.55922
v 265.49814 120.0 253.55922
v 304.73932 0.0 253.55922
v 265.49814 0.0 253.55922
vn -1.0 0.0 0.0
f 20//2 21//2 22//2
f 21//2 20//2 17//2
f 23//5 17//5 19//5
f 17//5 23//5 21//5
f 24//3 21//3 23//3
f 21//3 24//3 22//3
f 22//6 18//6 20//6
f 18//6 22//6 24//6
f 23//4 18//4 24//4
f 18//4 23//4 19//4
